<svg id="Layer_1" height="512" viewBox="0 0 512 512" width="512" xmlns="http://www.w3.org/2000/svg" data-name="Layer 1"><path d="m328.33 16c10.18 21.65 12.85 40.31 12.1 55.31a76.57 76.57 0 0 1 -20.64 48.05c-6.38 6.9-16.08 20.42-25.57 45.39l-.2.02a79.333 79.333 0 0 0 -8.88-29.58 120.932 120.932 0 0 1 15.42-28.7c30.74-42.01 27.77-90.49 27.77-90.49z" fill="#4ca987"/><path d="m328.33 16s2.97 48.48-27.77 90.49a120.932 120.932 0 0 0 -15.42 28.7c-.54-1.03-1.1-2.05-1.69-3.07a80.832 80.832 0 0 0 -18.95-22.46l.01-.01a104.59 104.59 0 0 1 19.48-27.15c40.62-41.93 44.34-66.5 44.34-66.5z" fill="#5fcda4"/><path d="m286.941 138.252-5.607-2.132a124.824 124.824 0 0 1 15.8-29.4c25.53-34.879 27.287-74.841 27.257-85.695a3.009 3.009 0 0 1 2.827-3.016 3 3 0 0 1 3.195 2.966c.114 11.611-1.556 52.565-28.437 89.289a118.853 118.853 0 0 0 -15.035 27.988z" fill="#3d8266"/><path d="m199.67 180.57c1.12 1.95 2.3 3.82 3.54 5.63-1.7-.3-3.4-.54-5.09-.72-13.73-13.53-30.38-25.18-50.33-31.98-48.46-16.53-77.13-60.39-78.01-61.76.66.67 18.19 18.2 74.35 29.04 14.66 2.83 30.33 8.22 44.7 20.13h.01c-.2 12.73 3.33 26.65 10.83 39.66z" fill="#4ca987"/><path d="m198.12 185.48a60.71 60.71 0 0 0 -25.01 2.34c-17.03-10.38-29.47-14.6-37.25-16.29a76.347 76.347 0 0 1 -44.39-27.54c-9.2-11.87-17.68-28.69-21.71-52.28a.124.124 0 0 1 .02.03c.88 1.37 29.55 45.23 78.01 61.76 19.95 6.8 36.6 18.45 50.33 31.98z" fill="#5fcda4"/><path d="m199.016 190.618c-14.928-14.715-31.481-25.24-49.2-31.282-43.362-14.788-70.776-50.385-77.816-60.405a3.01 3.01 0 0 1 .837-4.269 3 3 0 0 1 4.071.783c6.675 9.369 33.627 44.155 74.85 58.213 18.578 6.335 35.9 17.333 51.473 32.687z" fill="#3d8266"/><path d="m396.19 124.14s0 13.04-11.61 38.42-42.09 41.46-52.88 84.25c-5.97 23.7-.14 82.65-.14 82.65 1.27-3.64 2.48-7.52 3.59-11.64l1.87.51 39.81-51.19.01-.01c60.86-76.84 19.35-142.99 19.35-142.99z" fill="#5fcda4"/><path d="m289.33 428.41a1.661 1.661 0 0 1 -.71 1.72c-17.3-31.29-46.5-70.17-89.13-84.71-48.45-16.53-73.71-56.94-74.49-58.2.66.67 18.2 18.2 74.35 29.03 34.25 6.61 73.96 27.21 89.98 112.16z" fill="#4ca987"/><path d="m288.62 430.13a1.684 1.684 0 0 1 -2.17-.18c-48.53-47.22-80.48-59.71-95.37-62.94a76.477 76.477 0 0 1 -44.39-27.54c-9.19-11.87-17.68-28.7-21.71-52.28a.124.124 0 0 1 .02.03c.78 1.26 26.04 41.67 74.49 58.2 42.63 14.54 71.83 53.42 89.13 84.71z" fill="#5fcda4"/><path d="m312.06 371.515-4.714-3.711c6.565-8.366 20.358-32.674 25.572-64.817 3.191-19.677 10.3-31.358 19.291-46.146 10.458-17.193 23.42-38.5 37.226-82.273a3 3 0 0 1 3.745-1.956 3 3 0 0 1 1.973 3.777c-14.021 44.448-27.191 66.1-37.818 83.571-8.993 14.784-15.49 25.467-18.5 43.988-6.773 41.793-25.961 66.533-26.775 67.567z" fill="#3d8266"/><path d="m295.305 451.1c-32.885-72.551-75.378-96.2-97.782-103.839-43.034-14.676-67.824-47.283-74.373-56.869a3 3 0 0 1 .923-4.262 3.011 3.011 0 0 1 4.045.858c6.184 8.914 30.474 40.657 71.343 54.593 23.8 8.116 45.836 24.4 65.5 48.411 17.092 20.868 28.908 43.4 35.811 58.631z" fill="#3d8266"/><path d="m368.72 379.56a38.492 38.492 0 0 1 -11.02-3.28 36.413 36.413 0 0 1 -4.81-2.73c-.57-.38-1.13-.78-1.67-1.19a37.053 37.053 0 0 1 -7.06-6.98c.78.56 18.89-4.49 24.56 14.18z" fill="#89aa50"/><path d="m295.03 446.84a265.828 265.828 0 0 1 5.51-51.06 287.321 287.321 0 0 0 2.28-70.67 32.894 32.894 0 0 0 -7.14-17.87c-14.69-18.21-36.37-34.73-36.37-34.73.58-.83 1.13-1.7 1.64-2.59a37.941 37.941 0 0 0 1.77-3.48s20.54 12.89 31.58 25.46a2.107 2.107 0 0 0 3.65-1.79c-1.48-7.76-3.15-15.12-4.91-21.98-8.71-34.17-19.45-56.22-19.45-56.22a36.77 36.77 0 0 0 7.1-5.34s33.21 69.04 32.01 160.09c-.15 11.38-.83 23.1-2.19 35.07a36.523 36.523 0 0 0 -.23 3.78c-.01.85-.01 2.25 0 3.94a3.236 3.236 0 0 0 5.77 2.01 419.055 419.055 0 0 1 35.17-39.1c.54.41 1.1.81 1.67 1.19a36.413 36.413 0 0 0 4.81 2.73c-5.12 2.28-27.61 30.6-39.47 45.85a31.554 31.554 0 0 0 -6.56 21.91c1.15 14.17 3.19 29.71 6.66 41.05a8.321 8.321 0 0 1 -3.32 9.42l-.13.09a8.437 8.437 0 0 1 -12.32-3.49c-5.75-12.63-7.55-28.83-7.53-44.27z" fill="#91716b"/><path d="m294.02 164.77c1.2 13.46-1.58 26.08-8.07 35.57-19.21-3.14-22.69 15.36-23.54 15.81a40.41 40.41 0 0 1 -8.74.82c-17.91-.22-37.31-11.57-50.46-30.77-1.24-1.81-2.42-3.68-3.54-5.63-7.5-13.01-11.03-26.93-10.83-39.66.25-17.3 7.37-32.42 20.69-40.13 16.34-9.45 37.64-5.23 54.97 8.88a80.832 80.832 0 0 1 18.95 22.46c.59 1.02 1.15 2.04 1.69 3.07a79.333 79.333 0 0 1 8.88 29.58z" fill="#82b24f"/><path d="m273.59 211.91s10.74 22.05 19.45 56.22c-7.08-11.81-30.63-36.19-30.63-36.19a64.449 64.449 0 0 0 -8.74-14.96v-.01a40.41 40.41 0 0 0 8.74-.82 37.166 37.166 0 0 0 11.18-4.24z" fill="#4ca987"/><path d="m262.41 216.15c.85-.45 4.33-18.95 23.54-15.81a38.814 38.814 0 0 1 -5.26 6.23 36.77 36.77 0 0 1 -7.1 5.34 37.166 37.166 0 0 1 -11.18 4.24z" fill="#64873a"/><path d="m262.41 231.94a46.968 46.968 0 0 1 3.6 21.76l-.15-.01c-18.16 6.91-11.99 24.58-12.46 25.5v.01c-16.52 14.76-46.1 15.7-72.1.71-30.66-17.68-44.71-50.81-31.38-74 5.03-8.77 13.25-14.86 23.19-18.09a60.71 60.71 0 0 1 25.01-2.34c1.69.18 3.39.42 5.09.72 13.15 19.2 32.55 30.55 50.46 30.77v.01a64.449 64.449 0 0 1 8.74 14.96z" fill="#a7d663"/><path d="m265.86 253.69.15.01a38.917 38.917 0 0 1 -3.29 12.74 37.941 37.941 0 0 1 -1.77 3.48c-.51.89-1.06 1.76-1.64 2.59a36.591 36.591 0 0 1 -5.91 6.68c.47-.92-5.7-18.59 12.46-25.5z" fill="#89aa50"/><path d="m424.16 266.91c22.2 14.89 24.24 50.83 4.56 80.28-15.41 23.07-39.58 35.31-60 32.37-5.67-18.67-23.78-13.62-24.56-14.18-9.21-11.86-11.68-29.29-7.14-47.05a81.871 81.871 0 0 1 11.3-25.05 78.486 78.486 0 0 1 28.51-26.14l.01-.01c16.24-8.46 33.92-9.2 47.32-.22z" fill="#a7d663"/><path d="m233.21 186.2c-1.24-1.81-2.42-3.68-3.54-5.63-7.5-13.01-11.03-26.93-10.83-39.66.25-17.3 7.37-32.42 20.69-40.13a36.924 36.924 0 0 1 4.953-2.388c-12.125-4.1-24.545-3.631-34.953 2.388-13.32 7.71-20.44 22.83-20.69 40.13-.2 12.73 3.33 26.65 10.83 39.66 1.12 1.95 2.3 3.82 3.54 5.63 13.15 19.2 32.55 30.55 50.46 30.77a40.41 40.41 0 0 0 8.74-.82 32.56 32.56 0 0 0 1.577-3.653c-11.462-5.008-22.387-14.053-30.777-26.297z" fill="#678c3c"/><path d="m211.11 279.91c-30.66-17.68-44.5-50.81-31.169-74 5.03-8.77 13.27-14.86 23.21-18.09.326-.106.665-.192.994-.291-.314-.44-.628-.88-.935-1.329-1.7-.3-3.4-.54-5.09-.72a60.71 60.71 0 0 0 -25.01 2.34c-9.94 3.23-18.16 9.32-23.19 18.09-13.33 23.19.72 56.32 31.38 74 17.777 10.249 37.225 13.047 53.031 9.076a82.042 82.042 0 0 1 -23.221-9.076z" fill="#8eb250"/><path d="m246.727 202.977a2.994 2.994 0 0 1 -1.215-.259c-26.258-11.655-36.551-31.1-40.562-45.356a73.344 73.344 0 0 1 -2.391-28.461 3 3 0 0 1 5.93.911 68.637 68.637 0 0 0 2.3 26.154c5.366 18.822 17.867 32.706 37.154 41.267a3 3 0 0 1 -1.218 5.744z" fill="#456022"/><g fill="#718e39"><path d="m223.911 279.558c-25.061 0-42.291-11.926-52.726-22.674a90.507 90.507 0 0 1 -18.394-27.584 3 3 0 0 1 5.6-2.157 86.079 86.079 0 0 0 17.247 25.711c15.816 16.2 35.359 22.956 58.084 20.067a3 3 0 0 1 .756 5.953 83.924 83.924 0 0 1 -10.567.684z"/><path d="m386.231 363.656a3 3 0 0 1 -.884-5.867c19.094-5.9 31.192-19.07 35.957-39.151a83.693 83.693 0 0 0 1.427-29.213 3 3 0 0 1 5.919-.976 88.245 88.245 0 0 1 -1.462 31.379c-5.181 22.088-19.037 37.2-40.07 43.693a3.009 3.009 0 0 1 -.887.135z"/><path d="m348.81 341.244h-.078a3 3 0 0 1 -2.922-3.076 52.609 52.609 0 0 1 9.513-28.648 3 3 0 0 1 4.756 3.659 47.329 47.329 0 0 0 -8.27 25.143 3 3 0 0 1 -2.999 2.922z"/><path d="m246.726 243.449a3 3 0 0 1 -2.926-2.349c-2.323-10.518-13.391-15.415-13.5-15.463a3 3 0 0 1 2.359-5.516c.571.243 14 6.109 17 19.684a3 3 0 0 1 -2.932 3.648z"/></g><path d="m282.174 174.345a3.161 3.161 0 0 1 -.335-.018 3 3 0 0 1 -2.65-3.313 26.487 26.487 0 0 0 -3.889-17.014 3 3 0 0 1 4.851-3.531 32.093 32.093 0 0 1 5 21.205 3 3 0 0 1 -2.977 2.671z" fill="#456022"/></svg>